<svg width="137" height="242" viewBox="0 0 137 242" fill="none" xmlns="http://www.w3.org/2000/svg">
<rect width="137" height="242" fill="white"/>
<path d="M69.7372 176.697C70.8147 161.741 67.1294 146.917 67.1601 131.896C67.1736 125.273 67.6003 118.601 67.8159 111.979C67.9091 109.114 68.3434 106.207 68.345 103.354C68.3459 101.801 67.7956 100.502 68.1133 98.9531" stroke="#6B5BFD" stroke-width="9" stroke-linecap="round"/>
<path d="M73.7038 21.2894C69.8235 21.2173 66.0054 21.2178 62.2064 22.1196C58.439 23.0139 55.4661 25.4269 52.4548 27.7472C44.8465 33.6097 38.9546 40.4781 34.2296 48.8091C29.2328 57.6194 28.4507 69.8725 33.0009 79.1646C34.8253 82.8902 35.7266 85.3841 39.5446 87.6063C42.7598 89.4776 46.6508 91.8841 50.2162 92.9253C61.192 96.1307 72.387 98.347 83.8208 97.5214C95.6511 96.6672 102.083 86.0635 103.238 75.0259C104.384 64.0811 101.549 51.0692 96.6049 41.2993C92.4798 33.1488 83.9243 19.1521 73.1393 19.9308" stroke="#6B5BFD" stroke-width="9" stroke-linecap="round"/>
<path d="M68.3001 135.085C81.9822 125.458 100.209 118.229 109.965 105.857" stroke="#6B5BFD" stroke-width="9" stroke-linecap="round"/>
<path d="M66.3836 135.167C59.8116 133.662 53.8775 128.533 48.7462 124.425C41.9647 118.996 34.9038 113.775 27.5525 109.154" stroke="#6B5BFD" stroke-width="9" stroke-linecap="round"/>
<path d="M68.6864 178.661C64.5157 185.477 58.9338 191.383 54.4236 197.997C51.3064 202.569 48.3812 207.21 45.492 211.932C43.5355 215.129 41.2084 220.222 37.9648 222.246" stroke="#6B5BFD" stroke-width="9" stroke-linecap="round"/>
<path d="M69.8073 177.479C78.1522 189.199 89.0216 198.453 97.8908 209.823C101.643 214.634 106.029 219.462 109.213 224.563" stroke="#6B5BFD" stroke-width="9" stroke-linecap="round"/>
</svg>
